<svg width="11" height="11" viewBox="0 0 11 11" fill="none" xmlns="http://www.w3.org/2000/svg">
<path d="M10.1768 1.77111L10.3536 1.59433L10.1768 1.41755L9.58239 0.823216L9.40561 0.646453L9.22884 0.823224L5.5 4.55209L1.77116 0.823224L1.59439 0.646453L1.41761 0.823216L0.823231 1.41755L0.64644 1.59433L0.823223 1.77111L4.55209 5.5L0.823223 9.22889L0.64644 9.40567L0.823231 9.58245L1.41761 10.1768L1.59439 10.3535L1.77116 10.1768L5.5 6.44792L9.22884 10.1768L9.40561 10.3535L9.58239 10.1768L10.1768 9.58245L10.3536 9.40567L10.1768 9.22889L6.44791 5.5L10.1768 1.77111Z" fill="#B4BEBF" stroke="#B4BEBF" stroke-width="0.5"/>
</svg>
