<svg width="20" height="20" viewBox="0 0 20 20" fill="none" xmlns="http://www.w3.org/2000/svg">
<path d="M15.5555 16.6666H3.33328V4.44442H10.6777L11.7888 3.33331H3.33328C3.03859 3.33331 2.75598 3.45038 2.5476 3.65875C2.33923 3.86712 2.22217 4.14974 2.22217 4.44442V16.6666C2.22217 16.9613 2.33923 17.2439 2.5476 17.4523C2.75598 17.6607 3.03859 17.7778 3.33328 17.7778H15.5555C15.8502 17.7778 16.1328 17.6607 16.3412 17.4523C16.5495 17.2439 16.6666 16.9613 16.6666 16.6666V8.33331L15.5555 9.44442V16.6666Z" fill="#757881"/>
<path d="M18.6279 3.24444L16.7556 1.37222C16.6726 1.2889 16.5738 1.2228 16.4652 1.1777C16.3565 1.13259 16.24 1.10937 16.1223 1.10938C16.0046 1.10938 15.8881 1.13259 15.7795 1.1777C15.6708 1.2228 15.5721 1.2889 15.489 1.37222L7.87231 9.03333L7.25564 11.7056C7.22937 11.8351 7.23213 11.9688 7.26373 12.0972C7.29532 12.2255 7.35497 12.3452 7.43838 12.4478C7.52178 12.5503 7.62687 12.6331 7.74609 12.6901C7.86531 12.7472 7.99569 12.7771 8.12786 12.7778C8.19617 12.7853 8.26511 12.7853 8.33342 12.7778L11.0279 12.1833L18.6279 4.51111C18.7112 4.42802 18.7773 4.32931 18.8224 4.22063C18.8675 4.11195 18.8907 3.99544 18.8907 3.87777C18.8907 3.76011 18.8675 3.6436 18.8224 3.53492C18.7773 3.42624 18.7112 3.32753 18.6279 3.24444ZM10.4501 11.1556L8.41675 11.6056L8.88897 9.58889L14.6223 3.81666L16.189 5.38333L10.4501 11.1556ZM16.8168 4.75555L15.2501 3.18889L16.1112 2.31111L17.689 3.88889L16.8168 4.75555Z" fill="#757881"/>
</svg>
