<svg width="17" height="16" viewBox="0 0 17 16" fill="none" xmlns="http://www.w3.org/2000/svg">
<path d="M16.1008 3.0924C15.8448 2.48725 15.4757 1.93887 15.014 1.47796C14.5521 1.01568 14.0074 0.648304 13.4097 0.395823C12.7899 0.132977 12.1251 -0.00156332 11.4539 1.37049e-05C10.5123 1.37049e-05 9.59363 0.263237 8.79528 0.760436C8.60428 0.879373 8.42284 1.01001 8.25094 1.15235C8.07905 1.01001 7.89761 0.879373 7.70661 0.760436C6.90826 0.263237 5.98957 1.37049e-05 5.04797 1.37049e-05C4.36994 1.37049e-05 3.71292 0.1326 3.09219 0.395823C2.49247 0.649297 1.95196 1.01391 1.48784 1.47796C1.02563 1.93835 0.656404 2.48686 0.401088 3.0924C0.135606 3.72218 0 4.39096 0 5.07924C0 5.72853 0.129876 6.40511 0.387718 7.09338C0.603541 7.66858 0.912952 8.26521 1.30831 8.8677C1.93477 9.82115 2.79615 10.8156 3.86572 11.8236C5.63815 13.4946 7.39338 14.6489 7.46787 14.6957L7.92053 14.992C8.12107 15.1227 8.37891 15.1227 8.57945 14.992L9.03211 14.6957C9.1066 14.6469 10.8599 13.4946 12.6343 11.8236C13.7038 10.8156 14.5652 9.82115 15.1917 8.8677C15.587 8.26521 15.8983 7.66858 16.1123 7.09338C16.3701 6.40511 16.5 5.72853 16.5 5.07924C16.5019 4.39096 16.3663 3.72218 16.1008 3.0924Z" fill="black"/>
</svg>
