<svg width="15" height="15" viewBox="0 0 15 15" fill="none" xmlns="http://www.w3.org/2000/svg">
<path fill-rule="evenodd" clip-rule="evenodd" d="M7.5 0C7.72101 0 7.93298 0.0877975 8.08926 0.244078C8.24554 0.400358 8.33333 0.61232 8.33333 0.833333V7.5C8.33333 7.72101 8.24554 7.93298 8.08926 8.08926C7.93298 8.24554 7.72101 8.33333 7.5 8.33333H0.833333C0.61232 8.33333 0.400358 8.24554 0.244078 8.08926C0.0877975 7.93298 0 7.72101 0 7.5C0 7.27899 0.0877975 7.06702 0.244078 6.91074C0.400358 6.75446 0.61232 6.66667 0.833333 6.66667H6.66667V0.833333C6.66667 0.61232 6.75446 0.400358 6.91074 0.244078C7.06702 0.0877975 7.27899 0 7.5 0Z" fill="black"/>
<path fill-rule="evenodd" clip-rule="evenodd" d="M6.6665 7.5C6.6665 7.27899 6.7543 7.06702 6.91058 6.91074C7.06686 6.75446 7.27882 6.66667 7.49984 6.66667H14.1665C14.3875 6.66667 14.5995 6.75446 14.7558 6.91074C14.912 7.06702 14.9998 7.27899 14.9998 7.5C14.9998 7.72101 14.912 7.93298 14.7558 8.08926C14.5995 8.24554 14.3875 8.33333 14.1665 8.33333H8.33317V14.1667C8.33317 14.3877 8.24537 14.5996 8.08909 14.7559C7.93281 14.9122 7.72085 15 7.49984 15C7.27882 15 7.06686 14.9122 6.91058 14.7559C6.7543 14.5996 6.6665 14.3877 6.6665 14.1667V7.5Z" fill="black"/>
</svg>
